<svg width="50" height="50" viewBox="0 0 50 50" fill="none" xmlns="http://www.w3.org/2000/svg">
<g clip-path="url(#clip0_347_587)">
<path d="M30.1758 14.7135C30.1758 16.1458 29.6712 17.3665 28.6621 18.3757C27.653 19.3848 26.4323 19.8893 25 19.8893C23.5677 19.8893 22.347 19.3848 21.3379 18.3757C20.3288 17.3665 19.8242 16.1458 19.8242 14.7135C19.8242 13.2812 20.3288 12.0605 21.3379 11.0514C22.347 10.0423 23.5677 9.53776 25 9.53776C26.4323 9.53776 27.653 10.0423 28.6621 11.0514C29.6712 12.0605 30.1758 13.2812 30.1758 14.7135ZM37.1419 26.5299C36.9249 26.0959 36.6211 25.7487 36.2305 25.4883C35.8398 25.2279 35.3244 25.1248 34.6842 25.179C34.0441 25.2333 33.3876 25.5317 32.7148 26.0742C32.4978 26.2478 32.1832 26.4648 31.7708 26.7253C31.3585 26.9857 30.4796 27.3329 29.1341 27.7669C27.7886 28.201 26.4106 28.418 25 28.418C23.5894 28.418 22.2439 28.2227 20.9635 27.832C19.6832 27.4414 18.75 27.0508 18.1641 26.6602L17.2852 26.0742C16.6124 25.5317 15.9559 25.2333 15.3158 25.179C14.6756 25.1248 14.1602 25.2279 13.7695 25.4883C13.3789 25.7487 13.0751 26.0959 12.8581 26.5299C12.3806 27.5065 12.3589 28.3149 12.793 28.9551C13.227 29.5953 14.171 30.3928 15.625 31.3477C17.4262 32.4978 19.8785 33.2248 22.9818 33.5286L21.3216 35.2214C18.24 38.3029 16.1675 40.3646 15.1042 41.4062C14.6267 41.8837 14.388 42.4533 14.388 43.1152C14.388 43.7771 14.6267 44.3468 15.1042 44.8242L15.3971 45.1172C15.8746 45.5946 16.4442 45.8333 17.1061 45.8333C17.768 45.8333 18.3377 45.5946 18.8151 45.1172L25.0326 38.8997C27.5065 41.3954 29.579 43.4679 31.25 45.1172C31.7274 45.5946 32.2971 45.8333 32.959 45.8333C33.6209 45.8333 34.1905 45.5946 34.668 45.1172L34.9609 44.8242C35.4384 44.3468 35.6771 43.7771 35.6771 43.1152C35.6771 42.4533 35.4384 41.8837 34.9609 41.4062L28.7435 35.2214L27.0508 33.5286C30.1107 33.2248 32.5521 32.4978 34.375 31.3477C35.829 30.3928 36.773 29.5953 37.207 28.9551C37.6411 28.3149 37.6194 27.5065 37.1419 26.5299ZM35.5469 14.7135C35.5469 11.8056 34.5161 9.32075 32.4544 7.25911C30.3928 5.19748 27.908 4.16667 25 4.16667C22.092 4.16667 19.6072 5.19748 17.5456 7.25911C15.4839 9.32075 14.4531 11.8056 14.4531 14.7135C14.4531 17.6215 15.4839 20.1063 17.5456 22.168C19.6072 24.2296 22.092 25.2604 25 25.2604C27.908 25.2604 30.3928 24.2296 32.4544 22.168C34.5161 20.1063 35.5469 17.6215 35.5469 14.7135ZM50 9.375V40.625C50 43.2075 49.0831 45.4156 47.2493 47.2493C45.4156 49.0831 43.2075 50 40.625 50H9.375C6.79253 50 4.58442 49.0831 2.75065 47.2493C0.916884 45.4156 0 43.2075 0 40.625V9.375C0 6.79253 0.916884 4.58442 2.75065 2.75065C4.58442 0.916884 6.79253 0 9.375 0H40.625C43.2075 0 45.4156 0.916884 47.2493 2.75065C49.0831 4.58442 50 6.79253 50 9.375Z" fill="black"/>
</g>
<defs>
<clipPath id="clip0_347_587">
<rect width="50" height="50" fill="white"/>
</clipPath>
</defs>
</svg>
