<svg width="50" height="50" viewBox="0 0 50 50" fill="none" xmlns="http://www.w3.org/2000/svg">
<g clip-path="url(#clip0_342_572)">
<path d="M25 0.0859375C11.2474 0.0859375 0.0859375 11.2474 0.0859375 25C0.0859375 38.7526 11.2474 49.9141 25 49.9141C38.7526 49.9141 49.9141 38.7526 49.9141 25C49.9141 11.2474 38.7526 0.0859375 25 0.0859375ZM36.5602 17.0275C36.1864 20.9639 34.567 30.531 33.7449 34.9407C33.3961 36.8093 32.6985 37.4322 32.0507 37.5069C30.6057 37.6315 29.5095 36.5602 28.1143 35.6383C25.9218 34.1933 24.6761 33.2964 22.5584 31.9012C20.092 30.2818 21.6865 29.3849 23.1066 27.9399C23.4803 27.5662 29.8583 21.7612 29.9828 21.238C30.0001 21.1588 29.9978 21.0765 29.9761 20.9983C29.9544 20.9202 29.914 20.8485 29.8583 20.7895C29.7088 20.665 29.5095 20.7148 29.3351 20.7397C29.1108 20.7895 25.6229 23.1066 18.8213 27.6907C17.8248 28.3634 16.9279 28.7122 16.1306 28.6873C15.2337 28.6624 13.5395 28.189 12.2689 27.7655C10.6993 27.2672 9.47855 26.9932 9.5782 26.1212C9.62803 25.6727 10.2509 25.2243 11.4218 24.7509C18.6968 21.5868 23.5301 19.494 25.9468 18.4974C32.8729 15.6074 34.293 15.1091 35.2397 15.1091C35.439 15.1091 35.9124 15.159 36.2114 15.4081C36.4605 15.6074 36.5352 15.8815 36.5602 16.0808C36.5352 16.2303 36.5851 16.6787 36.5602 17.0275Z" fill="#2AABEE"/>
</g>
<defs>
<clipPath id="clip0_342_572">
<rect width="50" height="50" fill="white"/>
</clipPath>
</defs>
</svg>
