<svg width="50" height="50" viewBox="0 0 50 50" fill="none" xmlns="http://www.w3.org/2000/svg">
<g clip-path="url(#clip0_345_585)">
<path d="M32.1825 -0.5H16.845C2.83 -0.5 -0.5 2.8325 -0.5 16.8175V32.1575C-0.5 46.1675 2.8075 49.5 16.8175 49.5H32.1575C46.1675 49.5 49.5 46.1925 49.5 32.1825V16.845C49.5 2.83 46.1925 -0.5 32.1825 -0.5ZM39.865 35.175H36.2175C34.8375 35.175 34.4225 34.0575 31.9475 31.5825C29.7875 29.5 28.875 29.24 28.3275 29.24C27.5725 29.24 27.365 29.4475 27.365 30.49V33.77C27.365 34.6575 27.0775 35.1775 24.76 35.1775C22.5109 35.0264 20.3298 34.343 18.3965 33.1838C16.4632 32.0246 14.8329 30.4227 13.64 28.51C10.8079 24.985 8.83735 20.8478 7.885 16.4275C7.885 15.88 8.0925 15.385 9.135 15.385H12.7825C13.72 15.385 14.0575 15.8025 14.4225 16.765C16.1925 21.975 19.2125 26.505 20.4375 26.505C20.9075 26.505 21.1125 26.2975 21.1125 25.125V19.76C20.9575 17.3125 19.6575 17.105 19.6575 16.22C19.6742 15.9866 19.7812 15.7688 19.9557 15.6129C20.1303 15.4571 20.3587 15.3753 20.5925 15.385H26.3225C27.105 15.385 27.365 15.775 27.365 16.7125V23.9525C27.365 24.735 27.7025 24.995 27.9375 24.995C28.4075 24.995 28.77 24.735 29.63 23.875C31.4772 21.6224 32.9863 19.1127 34.11 16.425C34.2249 16.1022 34.4422 15.8258 34.7288 15.638C35.0155 15.4502 35.3557 15.3614 35.6975 15.385H39.345C40.4375 15.385 40.67 15.9325 40.4375 16.7125C39.1112 19.6836 37.4702 22.5039 35.5425 25.125C35.15 25.725 34.9925 26.0375 35.5425 26.74C35.905 27.2875 37.1825 28.355 38.0425 29.37C39.2923 30.6166 40.3301 32.0589 41.115 33.64C41.4275 34.655 40.905 35.175 39.865 35.175Z" fill="#0077FF"/>
</g>
<defs>
<clipPath id="clip0_345_585">
<rect width="50" height="50" fill="white"/>
</clipPath>
</defs>
</svg>
